<svg xmlns="http://www.w3.org/2000/svg" width="23.966" height="20.945" viewBox="0 0 23.966 20.945"><defs><style>.a,.c{fill:none;stroke:#777b86;stroke-linejoin:round;stroke-width:2px;}.b{fill:#777b86;}.c{stroke-linecap:round;}</style></defs><g transform="translate(-1375.375 -134.469)"><path class="a" d="M1398.341,144.465v5.373a.95.95,0,0,1-.95.95h-20.066a.954.954,0,0,1-.95-.95V136.586a.954.954,0,0,1,.95-.95h9.971" transform="translate(0 -0.052)"/><path class="a" d="M1.924,0H5.76A1.924,1.924,0,0,1,7.683,1.924v1.61A1.924,1.924,0,0,1,5.76,5.457H0a0,0,0,0,1,0,0V1.924A1.924,1.924,0,0,1,1.924,0Z" transform="translate(1390.556 135.469)"/><path class="b" d="M1396.031,143.788v2.447a.257.257,0,0,0,.426.195l2.98-2.567a.258.258,0,0,0-.168-.453h-3.238Z" transform="translate(-6.163 -2.49)"/><line class="c" x2="7.58" transform="translate(1383.484 154.414)"/><line class="c" y2="3.678" transform="translate(1387.274 150.736)"/></g></svg>