<svg xmlns="http://www.w3.org/2000/svg" width="21.017" height="23.96" viewBox="0 0 21.017 23.96"><defs><style>.a,.c{fill:none;stroke-miterlimit:10;}.a{stroke:#777b86;stroke-width:2px;}.b{fill:#777b86;}.c{stroke:#e70018;}</style></defs><g transform="translate(-1213.085 -132.587)"><rect class="a" width="11.912" height="9.612" rx="2.361" transform="translate(1214.085 145.935)"/><path class="a" d="M1223.648,150.84h-3.14l-.013-1.261a.362.362,0,0,1,.36-.36h2.42a.362.362,0,0,1,.36.36Z" transform="translate(-2.011 -4.904)"/><line class="a" x2="11.912" transform="translate(1214.085 150.741)"/><rect class="b" width="1.677" height="1.677" rx="0.838" transform="translate(1219.218 150.741)"/><path class="a" d="M1232.889,145.559h2.061a1.4,1.4,0,0,0,1.4-1.4v-6.806a1.4,1.4,0,0,0-1.4-1.4h-9.105a1.4,1.4,0,0,0-1.4,1.4v4.615" transform="translate(-3.249 -0.741)"/><path class="a" d="M1234,135.209h-3.14l-.013-1.261a.362.362,0,0,1,.36-.36h2.42a.362.362,0,0,1,.36.36Z" transform="translate(-5.26)"/><line class="a" x2="11.912" transform="translate(1221.192 140.014)"/><path class="c" d="M1231.929,144.717" transform="translate(-5.598 -3.492)"/><path class="c" d="M1234.352,144.717" transform="translate(-6.358 -3.492)"/><rect class="b" width="1.677" height="1.677" rx="0.838" transform="translate(1226.325 140.014)"/><path class="b" d="M1240.487,161.6l-3.66-2.472,3.66-2.472Z" transform="translate(-7.135 -7.236)"/><path class="b" d="M1217.745,138.421l-3.66,2.472v-4.944l3.66,2.472" transform="translate(0 -0.741)"/></g></svg>