<svg xmlns="http://www.w3.org/2000/svg" width="22.83" height="23.998" viewBox="0 0 22.83 23.998"><defs><style>.a{fill:none;stroke:#777b86;stroke-linecap:round;stroke-linejoin:round;stroke-width:2px;}.b{fill:#777b86;}</style></defs><g transform="translate(-324.5 -133.5)"><g transform="translate(325.5 134.5)"><path class="a" d="M1140.763,155.566h-6.373V144.943l2.832-2.125.708,2.833,4.249-3.541,1.416,2.833h3.541v-8.5h4.957v9.207" transform="translate(-1134.39 -136.444)"/><path class="a" d="M1151.539,161.893v-6.449h7.882v6.449c0,1.366-.8,1.969-2.15,2.15a6.283,6.283,0,0,1-.717,0h-5.016a2.519,2.519,0,0,1-2.15-2.15h7.165s.327,1.546,2.866.717" transform="translate(-1138.852 -142.055)"/><rect class="b" width="2" height="2" rx="0.469" transform="translate(3.461 12.361)"/><rect class="b" width="2" height="2" rx="0.469" transform="translate(7.416 12.361)"/></g></g></svg>