<svg xmlns="http://www.w3.org/2000/svg" width="22.502" height="22.79" viewBox="0 0 22.502 22.79"><defs><style>.a{fill:none;stroke:#777b86;stroke-miterlimit:10;stroke-width:2px;}.b{fill:#777b86;}</style></defs><g transform="translate(-886.518 -136.55)"><circle class="a" cx="3.465" cy="3.465" r="3.465" transform="translate(892.652 137.55)"/><path class="a" d="M898.446,160.825H887.518v-2.3a12.589,12.589,0,0,1,14.6-1.875" transform="translate(0 -5.609)"/><path class="b" d="M906.819,165.664l-1.575.177a.1.1,0,0,1-.113-.112l.177-1.576a.1.1,0,0,1,.029-.061l6.135-6.135a.1.1,0,0,1,.144,0l1.4,1.4a.1.1,0,0,1,0,.144l-6.135,6.135A.1.1,0,0,1,906.819,165.664Z" transform="translate(-5.619 -6.502)"/><rect class="b" width="2.181" height="1.638" rx="0.188" transform="translate(907.478 149.831) rotate(45)"/></g></svg>