<svg xmlns="http://www.w3.org/2000/svg" width="23.785" height="20.381" viewBox="0 0 23.785 20.381"><defs><style>.a,.b{fill:none;stroke:#777b86;stroke-linejoin:round;stroke-width:2px;}.a{stroke-linecap:round;}</style></defs><g transform="translate(-1293.694 -135.446)"><path class="a" d="M0,0H18.381a0,0,0,0,1,0,0V6.3A2.553,2.553,0,0,1,15.828,8.85H2.553A2.553,2.553,0,0,1,0,6.3V0A0,0,0,0,1,0,0Z" transform="translate(1296.056 145.977)"/><path class="b" d="M1298.1,148.212h-3.4l2.042-4.765h8.85" transform="translate(0 -2.235)"/><path class="b" d="M1317.5,148.212h4.085l-2.723-4.765h-8.169" transform="translate(-5.108 -2.235)"/><rect class="a" width="4.085" height="4.085" transform="translate(1300.821 145.977)"/><line class="a" y2="8.85" transform="translate(1309.672 145.977)"/><rect class="b" width="17.019" height="4.765" transform="translate(1296.737 136.446)"/></g></svg>