<svg xmlns="http://www.w3.org/2000/svg" width="16.02" height="13.948" viewBox="0 0 16.02 13.948"><defs><style>.a{fill:#fff;}</style></defs><g transform="translate(-377.959 -141.882)"><path class="a" d="M405.021,155.83h-4.394V154.6h4.394a.131.131,0,0,0,.131-.131v-6.431a4.936,4.936,0,1,0-9.872,0v5.586h-1.225v-5.586a6.161,6.161,0,1,1,12.322,0v6.431A1.357,1.357,0,0,1,405.021,155.83Z" transform="translate(-14.25)"/><path class="a" d="M1.47,0h.888a.713.713,0,0,1,.713.713V3.246A1.536,1.536,0,0,1,1.536,4.782h0A1.536,1.536,0,0,1,0,3.246V1.47A1.47,1.47,0,0,1,1.47,0Z" transform="translate(377.959 148.847)"/><path class="a" d="M.821,0h.185A2.066,2.066,0,0,1,3.072,2.066v.557A2.158,2.158,0,0,1,.914,4.782h0A.914.914,0,0,1,0,3.868V.821A.821.821,0,0,1,.821,0Z" transform="translate(390.907 148.835)"/><rect class="a" width="1.33" height="0.925" rx="0.463" transform="translate(378.987 152.704)"/><rect class="a" width="2.202" height="2.202" rx="1.101" transform="translate(385.277 153.628)"/></g></svg>