<svg xmlns="http://www.w3.org/2000/svg" xmlns:xlink="http://www.w3.org/1999/xlink" width="47.994" height="47.996" viewBox="0 0 47.994 47.996"><defs><style>.a,.b{fill:none;}.b{clip-rule:evenodd;}.c{clip-path:url(#a);}.d{isolation:isolate;}.e{clip-path:url(#b);}.f{clip-path:url(#c);}.g{clip-path:url(#d);}.h{fill:#f79a42;}.i{clip-path:url(#e);}.j{clip-path:url(#f);}.k{clip-path:url(#g);}.l{clip-path:url(#h);}.m{clip-path:url(#i);}.n{clip-path:url(#j);}.o{clip-path:url(#k);}.p{fill:#777b86;}</style><clipPath id="a"><path class="a" d="M18.581-35.509H37.161V-48H18.581Z"/></clipPath><clipPath id="b"><rect class="a" width="20" height="13" transform="translate(18 -48)"/></clipPath><clipPath id="c"><path class="b" d="M24-35.509l5.7-4.749h7.462V-48H18.581v7.742H24Zm-3.871-6.3v-4.645H35.613v4.645H29.139l-3.591,2.992v-2.992Z"/></clipPath><clipPath id="d"><path class="a" d="M18-35H38V-48H18Z"/></clipPath><clipPath id="e"><path class="a" d="M21.677-43.355h1.548V-44.9H21.677Z"/></clipPath><clipPath id="f"><path class="a" d="M24.774-43.355h6.194V-44.9H24.774Z"/></clipPath><clipPath id="g"><path class="a" d="M.006,0H48V-44.9H.006Z"/></clipPath><clipPath id="h"><rect class="a" width="48" height="45" transform="translate(0 -45)"/></clipPath><clipPath id="i"><path class="a" d="M32.516-43.355h1.548V-44.9H32.516Z"/></clipPath><clipPath id="j"><path class="b" d="M39.41-1.548l-.626-6.267a5.423,5.423,0,0,0,4.571-5.346V-23.226h-3.1V-24.3a2.785,2.785,0,0,0-1.508-2.482,4.627,4.627,0,0,0,1.508-3.416v-1.548a4.65,4.65,0,0,0-4.645-4.645,4.65,4.65,0,0,0-4.645,4.645v1.548a4.649,4.649,0,0,0,3.06,4.361l-4.155,4.155H25.531A3.1,3.1,0,0,0,23.3-24.452l-3.174-.906v-1.383a4.629,4.629,0,0,0,1.548-3.453v-1.548a4.65,4.65,0,0,0-4.645-4.645,4.65,4.65,0,0,0-4.645,4.645v1.548a4.632,4.632,0,0,0,1.548,3.453v1.384l-3.174.906a3.108,3.108,0,0,0-2.246,2.978v2.893h-3.1v4.645H6.968V-1.548H0V0H48V-1.548ZM32.516-13.935v-3.55L38-22.972a2.426,2.426,0,0,0,.685-1.485,1.267,1.267,0,0,1,.022.161v9.586a2.326,2.326,0,0,1-2.323,2.323H30.194v-1.548ZM30.194-7.742h3.945l.619,6.194H30.194Zm5.5,0h1.541l.619,6.194H36.313Zm4.564-6.968v-6.968h1.548v8.516A3.875,3.875,0,0,1,37.935-9.29H30.194v-1.548h6.194A3.875,3.875,0,0,0,40.258-14.71ZM32.516-30.194v-1.548a3.1,3.1,0,0,1,3.1-3.1,3.1,3.1,0,0,1,3.1,3.1v1.548a3.1,3.1,0,0,1-3.1,3.1A3.1,3.1,0,0,1,32.516-30.194Zm-2,10.065,5.165-5.165a.874.874,0,0,1,.614-.254.869.869,0,0,1,.868.868.874.874,0,0,1-.254.614l-5.486,5.486h-8.2a.775.775,0,0,1-.774-.774.775.775,0,0,1,.774-.774ZM13.935-31.742a3.1,3.1,0,0,1,3.1-3.1,3.1,3.1,0,0,1,3.1,3.1v1.548a3.1,3.1,0,0,1-3.1,3.1,3.1,3.1,0,0,1-3.1-3.1Zm3.1,6.194a4.621,4.621,0,0,0,1.548-.271v.832A1.98,1.98,0,0,1,17.032-24a1.98,1.98,0,0,1-1.548-.988v-.832A4.621,4.621,0,0,0,17.032-25.548Zm-6.968,4.075a1.555,1.555,0,0,1,1.123-1.489l3.189-.911a3.372,3.372,0,0,0,2.656,1.422,3.37,3.37,0,0,0,2.656-1.423l3.189.911a1.543,1.543,0,0,1,1.089,1.285h-.741A2.326,2.326,0,0,0,20.9-19.356a2.289,2.289,0,0,0,.143.774H10.065Zm-3.1,5.99h24v-1.548h-24Zm1.548,4.645h2.323v-1.548H8.516v-1.548H28.645v1.548H12.387v1.548H28.645v9.29H26.8l-1.548-3.1H11.909l-1.548,3.1H8.516ZM25.07-1.548H12.091L12.866-3.1H24.3Z"/></clipPath><clipPath id="k"><path class="a" d="M0,0H48V-45H0Z"/></clipPath></defs><g transform="translate(-0.006 47.996)"><g class="c"><g class="d"><g class="e"><g class="f"><g class="g"><path class="h" d="M13.581-53H42.161v22.491H13.581Z"/></g></g></g></g></g><g class="i"><path class="h" d="M16.677-49.9H28.226v11.548H16.677Z"/></g><g class="j"><path class="h" d="M19.774-49.9H35.968v11.548H19.774Z"/></g><g class="k"><g class="d"><g class="l"><g class="m"><path class="h" d="M27.516-49.9H39.065v11.548H27.516Z"/></g><g class="n"><g class="o"><path class="p" d="M-5-41.387H53V5H-5Z"/></g></g></g></g></g></g></svg>