<svg xmlns="http://www.w3.org/2000/svg" xmlns:xlink="http://www.w3.org/1999/xlink" width="47.994" height="47.996" viewBox="0 0 47.994 47.996"><defs><style>.a,.b{fill:none;}.b,.c{clip-rule:evenodd;}.c{fill:#450f0f;}.d{clip-path:url(#a);}.e{isolation:isolate;}.f{clip-path:url(#b);}.g{clip-path:url(#c);}.h{clip-path:url(#d);}.i{fill:#777b86;}.j{clip-path:url(#e);}.k{clip-path:url(#f);}.l{clip-path:url(#g);}.m{fill:#E30613;}.n{clip-path:url(#h);}.o{clip-path:url(#i);}.p{clip-path:url(#j);}.q{clip-path:url(#k);}.r{clip-path:url(#l);}.s{clip-path:url(#m);}.t{clip-path:url(#n);}.u{clip-path:url(#o);}</style><clipPath id="a"><path class="a" d="M.006,0H48V-48H.006Z"/></clipPath><clipPath id="b"><rect class="a" width="48" height="48" transform="translate(0 -48)"/></clipPath><clipPath id="c"><path class="b" d="M48-38.71v-4.645H36.171L34.623-48H22.667l-1.548,4.645H9.29v4.645h1.548v5.419a5.426,5.426,0,0,0-5.419,5.419v2.323a5.412,5.412,0,0,0,2.323,4.441v1.177l-4.983,1.5A3.853,3.853,0,0,0,0-14.71v8.516A1.55,1.55,0,0,0,1.548-4.645h.774V0H19.355V-7.742h8.516V-4.5a2.319,2.319,0,0,0-1.548,2.18A2.326,2.326,0,0,0,28.645,0a2.326,2.326,0,0,0,2.323-2.323A2.319,2.319,0,0,0,29.419-4.5V-7.742H48v-4.645H46.452V-38.71ZM28.645-1.548a.775.775,0,0,1-.774-.774.775.775,0,0,1,.774-.774.775.775,0,0,1,.774.774A.775.775,0,0,1,28.645-1.548ZM10.839-41.806h11.4l1.548-4.645h9.723l1.548,4.645h11.4v1.548H10.839ZM6.968-25.548v-2.323a3.875,3.875,0,0,1,3.871-3.871,3.875,3.875,0,0,1,3.871,3.871v2.323a3.875,3.875,0,0,1-3.871,3.871A3.875,3.875,0,0,1,6.968-25.548Zm3.871,5.419a5.388,5.388,0,0,0,1.548-.228v.791a1.99,1.99,0,0,1-1.548.986,1.98,1.98,0,0,1-1.548-.987v-.79A5.388,5.388,0,0,0,10.839-20.129ZM1.548-7.742h8.516a.775.775,0,0,1,.774.774.775.775,0,0,1-.774.774H1.548ZM14.71-1.548H6.968v-3.1h3.1a2.326,2.326,0,0,0,2.323-2.323A2.326,2.326,0,0,0,10.065-9.29h-3.1v-3.1H14.71Zm-10.839,0H5.419v-3.1H3.871Zm13.935,0H16.258V-13.935H5.419V-9.29H1.548v-5.437A2.309,2.309,0,0,1,3.2-16.953l4.985-1.5a3.367,3.367,0,0,0,2.65,1.416,3.422,3.422,0,0,0,2.748-1.548h8.091v3.1H17.806ZM19.355-9.29h27.1v-1.548h-27.1Zm25.548-3.1H19.355v-1.548h3.871v-.774h6.968a2.326,2.326,0,0,0,2.323-2.323,2.326,2.326,0,0,0-2.323-2.323H23.226v-.774h-9.29v-.979a5.414,5.414,0,0,0,2.323-4.441v-2.323a5.456,5.456,0,0,0-.062-.774H26.323v-1.548H24.774v-6.194H23.226v6.194H21.677v-4.645H20.129v4.645H18.581v-2.323H17.032v2.323h-1.3a5.44,5.44,0,0,0-3.341-2.868V-38.71H44.9ZM23.226-17.806h6.968a.775.775,0,0,1,.774.774.775.775,0,0,1-.774.774H23.226Z"/></clipPath><clipPath id="d"><path class="a" d="M0,0H48V-48H0Z"/></clipPath><clipPath id="e"><path class="a" d="M24.774-43.355h7.742V-44.9H24.774Z"/></clipPath><clipPath id="f"><path class="c" d="M35.613-21.677a7.751,7.751,0,0,0,7.742-7.742,7.751,7.751,0,0,0-7.742-7.742,7.751,7.751,0,0,0-7.742,7.742A7.751,7.751,0,0,0,35.613-21.677Zm-6.14-6.968h3.153a3.092,3.092,0,0,0,2.213,2.213v3.153A6.2,6.2,0,0,1,29.473-28.645Zm6.14-2.323a1.55,1.55,0,0,1,1.548,1.548,1.55,1.55,0,0,1-1.548,1.548,1.55,1.55,0,0,1-1.548-1.548A1.55,1.55,0,0,1,35.613-30.968Zm.774,7.689v-3.153A3.092,3.092,0,0,0,38.6-28.645h3.153A6.2,6.2,0,0,1,36.387-23.279Zm5.366-6.914H38.6a3.092,3.092,0,0,0-2.213-2.213V-35.56A6.2,6.2,0,0,1,41.753-30.194ZM34.839-35.56v3.153a3.092,3.092,0,0,0-2.213,2.213H29.473A6.2,6.2,0,0,1,34.839-35.56Z"/></clipPath><clipPath id="g"><path class="a" d="M-1015,2143H905V-1032H-1015Z"/></clipPath><clipPath id="h"><path class="a" d="M17.806-21.677h1.548v-1.548H17.806Z"/></clipPath><clipPath id="i"><path class="a" d="M20.9-21.677h1.548v-1.548H20.9Z"/></clipPath><clipPath id="j"><path class="a" d="M24-21.677h1.548v-1.548H24Z"/></clipPath><clipPath id="k"><path class="a" d="M17.806-24.774h7.742v-1.548H17.806Z"/></clipPath><clipPath id="l"><path class="a" d="M34.839-13.935h1.548v-1.548H34.839Z"/></clipPath><clipPath id="m"><path class="a" d="M37.935-13.935h1.548v-1.548H37.935Z"/></clipPath><clipPath id="n"><path class="a" d="M41.032-13.935h1.548v-1.548H41.032Z"/></clipPath><clipPath id="o"><path class="a" d="M34.065-17.032h9.29v-1.548h-9.29Z"/></clipPath></defs><g transform="translate(-0.006 47.996)"><g class="d"><g class="e"><g class="f"><g class="g"><g class="h"><path class="i" d="M-5-53H53V5H-5Z"/></g></g></g></g></g><g class="j"><path class="i" d="M19.774-49.9H37.516v11.548H19.774Z"/></g><g class="k"><g class="l"><path class="m" d="M22.871-42.161H48.355v25.484H22.871Z"/></g></g><g class="n"><path class="i" d="M12.806-28.226H24.355v11.548H12.806Z"/></g><g class="o"><path class="i" d="M15.9-28.226H27.452v11.548H15.9Z"/></g><g class="p"><path class="i" d="M19-28.226H30.548v11.548H19Z"/></g><g class="q"><path class="i" d="M12.806-31.323H30.548v11.548H12.806Z"/></g><g class="r"><path class="i" d="M29.839-20.484H41.387V-8.935H29.839Z"/></g><g class="s"><path class="i" d="M32.935-20.484H44.484V-8.935H32.935Z"/></g><g class="t"><path class="i" d="M36.032-20.484H47.581V-8.935H36.032Z"/></g><g class="u"><path class="i" d="M29.065-23.581h19.29v11.548H29.065Z"/></g></g></svg>