<svg xmlns="http://www.w3.org/2000/svg" xmlns:xlink="http://www.w3.org/1999/xlink" width="379.328" height="640.831" viewBox="0 0 379.328 640.831"><defs><style>.a{fill:none;}.b{clip-path:url(#a);}.c{clip-path:url(#b);}.d{fill:#edad4e;}.e{clip-path:url(#c);}.f{fill:#242420;}.g{clip-path:url(#e);}.h{fill:url(#g);}.i{clip-path:url(#h);}.j{fill:url(#j);}.k{clip-path:url(#k);}.l{fill:#8b83a7;}.m{clip-path:url(#m);}.n{fill:url(#o);}.o{clip-path:url(#p);}.p{fill:url(#r);}.q{clip-path:url(#s);}.r{fill:url(#u);}.s{clip-path:url(#v);}.t{fill:url(#x);}.u{clip-path:url(#y);}.v{fill:url(#aa);}.w{clip-path:url(#ab);}.x{fill:url(#ad);}.y{clip-path:url(#ae);}.z{fill:url(#ag);}.aa{clip-path:url(#ah);}.ab{fill:url(#aj);}.ac{clip-path:url(#ak);}.ad{fill:url(#am);}.ae{clip-path:url(#an);}.af{fill:url(#ap);}.ag{clip-path:url(#aq);}.ah{fill:url(#as);}.ai{clip-path:url(#at);}.aj{fill:url(#av);}.ak{clip-path:url(#aw);}.al{clip-path:url(#ax);}.am{fill:url(#ay);}.an{clip-path:url(#az);}.ao{fill:url(#bb);}.ap{clip-path:url(#bc);}.aq{fill:url(#be);}.ar{clip-path:url(#bf);}.as{fill:#ec9a4e;}</style><clipPath id="a"><path class="a" d="M227.323,60.734a121.258,121.258,0,0,1-6.445,18.746,172.994,172.994,0,0,1-12.694,21.675c-25,37.492-71.281,86.505-108.776,124-32.613,32.61-58.587,56.433-58.587,56.433A925.209,925.209,0,0,1,1.178,37.5V32.224a114.827,114.827,0,0,1,139.242-111.6l3.32.781A114.819,114.819,0,0,1,227.323,60.734Z" transform="translate(-1.178 81.999)"/></clipPath><clipPath id="b"><path class="a" d="M-360,23336.467H13813.841V-102H-360Z" transform="translate(360 102)"/></clipPath><clipPath id="c"><path class="a" d="M2.275-3.533a108.374,108.374,0,0,1,12.6-21.675A164.707,164.707,0,0,0,2.275-3.533Z" transform="translate(-2.275 25.208)"/></clipPath><clipPath id="e"><path class="a" d="M227.234,226.952A114.847,114.847,0,0,1,4.409,171.2a109.053,109.053,0,0,1,6.347-18.746,164.707,164.707,0,0,1,12.6-21.675A782.855,782.855,0,0,1,104.495,35c44.135-46.084,86.318-84.65,86.318-84.65s3.808,11.423,9.081,31.439c1.172,4.491,2.441,9.764,3.711,14.841a937.224,937.224,0,0,1,26.852,197.614v4.784h0A115.491,115.491,0,0,1,227.234,226.952Z" transform="translate(-0.947 49.65)"/></clipPath><linearGradient id="g" x1="0.438" y1="0.851" x2="0.845" y2="0.56" gradientUnits="objectBoundingBox"><stop offset="0" stop-color="#9bcee7"/><stop offset="0.1" stop-color="#98c8e4"/><stop offset="0.2" stop-color="#94c2e0"/><stop offset="0.3" stop-color="#90bcdc"/><stop offset="0.4" stop-color="#8cb5d8"/><stop offset="0.5" stop-color="#89afd5"/><stop offset="0.6" stop-color="#85a8d1"/><stop offset="0.7" stop-color="#81a2cd"/><stop offset="0.8" stop-color="#7d9cc9"/><stop offset="0.9" stop-color="#7a96c6"/><stop offset="1" stop-color="#7a96c6"/></linearGradient><clipPath id="h"><path class="a" d="M140.419-79.373A115.209,115.209,0,0,0,76.852,20.215V25.39a915.734,915.734,0,0,0,15.33,164.028,516.07,516.07,0,0,1-67.766,31.243A928.135,928.135,0,0,1,1.178,37.594V32.322A114.828,114.828,0,0,1,140.419-79.373Z" transform="translate(-1.178 81.999)"/></clipPath><linearGradient id="j" x1="0.342" y1="0.08" x2="0.15" y2="0.448" gradientUnits="objectBoundingBox"><stop offset="0" stop-color="#fedf5c"/><stop offset="0.1" stop-color="#fedc5c"/><stop offset="0.2" stop-color="#fdd95c"/><stop offset="0.3" stop-color="#fdd55c"/><stop offset="0.4" stop-color="#fdd25c"/><stop offset="0.5" stop-color="#fdcf5c"/><stop offset="0.6" stop-color="#fccb5d"/><stop offset="0.7" stop-color="#fcc85d"/><stop offset="0.8" stop-color="#fcc55d"/><stop offset="0.9" stop-color="#fbc15d"/><stop offset="1" stop-color="#fbbe5d"/></linearGradient><clipPath id="k"><path class="a" d="M110.483-18.211C65.371,26.506,22.6,63.8,22.6,63.8S19.381,53.356,14.987,35C59.122-11.084,101.3-49.65,101.3-49.65S105.21-38.226,110.483-18.211Z" transform="translate(-14.987 49.65)"/></clipPath><clipPath id="m"><path class="a" d="M25.022-51.012l-.684.781Z" transform="translate(-24.338 51.012)"/></clipPath><linearGradient id="o" x1="0.914" y1="0.077" x2="0.727" y2="0.398" gradientUnits="objectBoundingBox"><stop offset="0" stop-color="#fdd753"/><stop offset="0.1" stop-color="#fdd454"/><stop offset="0.2" stop-color="#fcd056"/><stop offset="0.3" stop-color="#fccc58"/><stop offset="0.4" stop-color="#fbc859"/><stop offset="0.5" stop-color="#fbc55a"/><stop offset="0.6" stop-color="#fbc45a"/><stop offset="0.7" stop-color="#fbc25a"/><stop offset="0.8" stop-color="#fac15b"/><stop offset="0.9" stop-color="#fabf5b"/><stop offset="1" stop-color="#fabe5b"/></linearGradient><clipPath id="p"><path class="a" d="M24.447-49.954l-1.074,1.269Z" transform="translate(-23.373 49.954)"/></clipPath><linearGradient id="r" x1="0.894" y1="0.075" x2="0.708" y2="0.396" xlink:href="#o"/><clipPath id="s"><path class="a" d="M23.494-48.869,22.42-47.8Z" transform="translate(-22.42 48.869)"/></clipPath><linearGradient id="u" x1="0.874" y1="0.074" x2="0.687" y2="0.395" xlink:href="#o"/><clipPath id="v"><path class="a" d="M28.058-54.318l-1.074,1.465Z" transform="translate(-26.983 54.318)"/></clipPath><linearGradient id="x" x1="0.969" y1="0.082" x2="0.782" y2="0.403" xlink:href="#o"/><clipPath id="y"><path class="a" d="M78.315-80.862,75-81.643A114.236,114.236,0,0,0,15.53-9.3a120.282,120.282,0,0,0-4.1,27.24V23.12a915.734,915.734,0,0,0,15.33,164.028,597.491,597.491,0,0,0,103.308-70.59c4.589-6.151,8.983-12.107,12.694-17.77a173,173,0,0,0,12.694-21.675A121.255,121.255,0,0,0,161.9,58.366,114.819,114.819,0,0,0,78.315-80.862Z" transform="translate(-11.428 81.643)"/></clipPath><linearGradient id="aa" x1="0.732" y1="0.06" x2="0.547" y2="0.381" xlink:href="#o"/><clipPath id="ab"><path class="a" d="M29.572-50.906l-6.054,7.03Z" transform="translate(-23.518 50.906)"/></clipPath><linearGradient id="ad" x1="0.904" y1="0.076" x2="0.718" y2="0.397" xlink:href="#o"/><clipPath id="ae"><path class="a" d="M29.876-54.795h0l-2.734,3.417Z" transform="translate(-27.142 54.795)"/></clipPath><linearGradient id="ag" x1="0.974" y1="0.083" x2="0.788" y2="0.404" xlink:href="#o"/><clipPath id="ah"><path class="a" d="M31.88-54.12l-5.663,7.127Z" transform="translate(-26.216 54.12)"/></clipPath><linearGradient id="aj" x1="0.959" y1="0.081" x2="0.773" y2="0.403" xlink:href="#o"/><clipPath id="ak"><path class="a" d="M37.515-53.128c-4.2,5.175-8.593,10.349-13.084,15.622C28.922-42.779,33.316-47.953,37.515-53.128Z" transform="translate(-24.431 53.128)"/></clipPath><linearGradient id="am" x1="0.933" y1="0.079" x2="0.747" y2="0.4" xlink:href="#o"/><clipPath id="an"><path class="a" d="M28.588-49.782l-5.956,6.737Z" transform="translate(-22.632 49.782)"/></clipPath><linearGradient id="ap" x1="0.884" y1="0.074" x2="0.697" y2="0.395" xlink:href="#o"/><clipPath id="aq"><path class="a" d="M13.917-41.783v-2.246A4.377,4.377,0,0,0,13.917-41.783Z" transform="translate(-13.762 44.029)"/></clipPath><linearGradient id="as" x1="0.655" y1="0.053" x2="0.469" y2="0.374" xlink:href="#o"/><clipPath id="at"><path class="a" d="M28.245-48.724l-6.738,7.518Z" transform="translate(-21.507 48.724)"/></clipPath><linearGradient id="av" x1="0.862" y1="0.072" x2="0.676" y2="0.394" xlink:href="#o"/><clipPath id="aw"><path class="a" d="M14.259-40.93v0Z" transform="translate(-14.259 41.516)"/></clipPath><clipPath id="ax"><path class="a" d="M-360,23336.467H1560V-102H-360Z" transform="translate(360 102)"/></clipPath><linearGradient id="ay" x1="0.686" y1="0.056" x2="0.499" y2="0.377" xlink:href="#o"/><clipPath id="az"><path class="a" d="M14.484,6.118c16.4-16.305,34.469-34.954,51.654-53.8C48.953-28.835,30.888-10.187,14.484,6.118Z" transform="translate(-14.484 47.679)"/></clipPath><linearGradient id="bb" x1="0.776" y1="0.064" x2="0.59" y2="0.385" xlink:href="#o"/><clipPath id="bc"><path class="a" d="M174.3,186.519a114.922,114.922,0,0,1-81.045,82.893A114.916,114.916,0,0,1,12.7,130.867a117.839,117.839,0,0,1,6.445-18.746A165.978,165.978,0,0,1,31.835,90.934C59.176,49.927,111.9-4.944,150.864-43.315A937.214,937.214,0,0,1,177.717,154.3v4.784h0A115.487,115.487,0,0,1,174.3,186.519Z" transform="translate(-9.241 43.315)"/></clipPath><linearGradient id="be" x1="0.792" y1="0.561" x2="0.609" y2="0.83" gradientUnits="objectBoundingBox"><stop offset="0" stop-color="#5973b1"/><stop offset="0.1" stop-color="#577ab5"/><stop offset="0.2" stop-color="#5581ba"/><stop offset="0.3" stop-color="#5488be"/><stop offset="0.4" stop-color="#528fc3"/><stop offset="0.5" stop-color="#5096c7"/><stop offset="0.6" stop-color="#4e9ccb"/><stop offset="0.7" stop-color="#4ca3d0"/><stop offset="0.8" stop-color="#4baad4"/><stop offset="0.9" stop-color="#49b1d9"/><stop offset="1" stop-color="#47b8dd"/></linearGradient><clipPath id="bf"><path class="a" d="M13.6,15.764c.488,2.929.976,5.761,1.562,8.494V26.5l1.465,7.03V35.78q.684,3.71,1.465,7.03V43.4c0,2.636,1.074,5.272,1.66,7.713,16.4-16.305,34.469-34.954,51.654-53.8h0l6.737-7.518,1.074-1.074,5.956-6.737,1.074-1.269,6.054-7.03.684-.781c4.492-5.272,8.886-10.447,13.084-15.622h0l5.663-7.127,1.074-1.465,2.734-3.417a597.493,597.493,0,0,1-102.039,70.2Z" transform="translate(-13.505 54.728)"/></clipPath></defs><g transform="translate(-1272.949 -4039.376)"><g transform="translate(2448 3568)"><g class="b" transform="matrix(0.966, 0.259, -0.259, 0.966, -1017.493, 471.376)"><g class="c" transform="translate(-2666.288 -147.654)"><path class="d" d="M-3.822-87H299.593V350.407H-3.822Z" transform="translate(2633.199 197.742)"/></g></g><g class="e" transform="matrix(0.966, 0.259, -0.259, 0.966, -1118.171, 878.425)"><g class="c" transform="translate(-2674.393 -566.891)"><path class="f" d="M-2.725-30.208H83.694v95.5H-2.725Z" transform="translate(2640.206 560.188)"/></g></g><g class="g" transform="matrix(0.966, 0.259, -0.259, 0.966, -1080.947, 701.604)"><g class="c" transform="translate(-2664.584 -386.46)"><g transform="translate(2657.595 147.644)"><path class="h" d="M-.947-32.35H242.666V572.99H-.947Z" transform="translate(0.947 32.35)"/></g></g></g><g class="i" transform="matrix(0.966, 0.259, -0.259, 0.966, -1017.493, 471.376)"><g class="c" transform="translate(-2666.288 -147.654)"><g transform="translate(2657.595 147.644)"><path class="j" d="M-1.178,0H242.435v605.34H-1.178Z" transform="translate(1.178 0.001)"/></g></g></g><g class="k" transform="matrix(0.966, 0.259, -0.259, 0.966, -980.833, 728.429)"><g class="c" transform="translate(-2768.229 -386.46)"><path class="l" d="M9.987-54.65H179.305V132.625H9.987Z" transform="translate(2721.332 404.199)"/></g></g><g class="m" transform="matrix(0.966, 0.259, -0.259, 0.966, -911.548, 736.583)"><g class="c" transform="translate(-2837.264 -376.404)"><g transform="translate(2657.595 147.644)"><path class="n" d="M-23.723-30.38H219.89V574.96H-23.723Z" transform="translate(23.723 30.38)"/></g></g></g><g class="o" transform="matrix(0.966, 0.259, -0.259, 0.966, -920.454, 742.283)"><g class="c" transform="translate(-2830.136 -384.215)"><g transform="translate(2657.595 147.644)"><path class="p" d="M-22.784-31.471H220.829v605.34H-22.784Z" transform="translate(22.784 31.471)"/></g></g></g><g class="q" transform="matrix(0.966, 0.259, -0.259, 0.966, -929.318, 748.197)"><g class="c" transform="translate(-2823.106 -392.221)"><g transform="translate(2657.595 147.644)"><path class="r" d="M-21.832-32.542H221.781V572.8H-21.832Z" transform="translate(21.832 32.542)"/></g></g></g><g class="s" transform="matrix(0.966, 0.259, -0.259, 0.966, -886.367, 718.06)"><g class="c" transform="translate(-2856.793 -351.995)"><g transform="translate(2657.595 147.644)"><path class="t" d="M-26.395-27.12H217.218V578.22H-26.395Z" transform="translate(26.395 27.12)"/></g></g></g><g class="u" transform="matrix(0.966, 0.259, -0.259, 0.966, -945.077, 493.499)"><g class="c" transform="translate(-2741.963 -150.28)"><g transform="translate(2657.595 147.644)"><path class="v" d="M-11.428-.357H232.184v605.34H-11.428Z" transform="translate(11.428 0.357)"/></g></g></g><g class="w" transform="matrix(0.966, 0.259, -0.259, 0.966, -917.598, 735.77)"><g class="c" transform="translate(-2831.21 -377.185)"><g transform="translate(2657.595 147.644)"><path class="x" d="M-23.267-30.909H220.346v605.34H-23.267Z" transform="translate(23.267 30.909)"/></g></g></g><g class="y" transform="matrix(0.966, 0.259, -0.259, 0.966, -884.325, 714.968)"><g class="c" transform="translate(-2857.965 -348.48)"><g transform="translate(2657.595 147.644)"><path class="z" d="M-26.666-26.776H216.947v605.34H-26.666Z" transform="translate(26.666 26.776)"/></g></g></g><g class="aa" transform="matrix(0.966, 0.259, -0.259, 0.966, -892.216, 718.009)"><g class="c" transform="translate(-2851.13 -353.459)"><g transform="translate(2657.595 147.644)"><path class="ab" d="M-25.939-27.7H217.674v605.34H-25.939Z" transform="translate(25.939 27.701)"/></g></g></g><g class="ac" transform="matrix(0.966, 0.259, -0.259, 0.966, -906.844, 721.671)"><g class="c" transform="translate(-2837.948 -360.782)"><g transform="translate(2657.595 147.644)"><path class="ad" d="M-24.431-28.872H219.182v605.34H-24.431Z" transform="translate(24.431 28.872)"/></g></g></g><g class="ae" transform="matrix(0.966, 0.259, -0.259, 0.966, -926.065, 742.094)"><g class="c" transform="translate(-2824.668 -385.484)"><g transform="translate(2657.595 147.644)"><path class="af" d="M-22.374-32.013H221.239v605.34H-22.374Z" transform="translate(22.374 32.013)"/></g></g></g><g class="ag" transform="matrix(0.966, 0.259, -0.259, 0.966, -1000.305, 766.171)"><g class="c" transform="translate(-2759.189 -427.956)"><g transform="translate(2657.595 147.644)"><path class="ah" d="M-13.111-37.462H230.5v605.34H-13.111Z" transform="translate(13.111 37.462)"/></g></g></g><g class="ai" transform="matrix(0.966, 0.259, -0.259, 0.966, -936.104, 747.49)"><g class="c" transform="translate(-2816.368 -393.295)"><g transform="translate(2657.595 147.644)"><path class="aj" d="M-21.3-33.124H222.31v605.34H-21.3Z" transform="translate(21.302 33.124)"/></g></g></g><g class="ak" transform="matrix(0.966, 0.259, -0.259, 0.966, -1001.562, 785.039)"><g class="al" transform="translate(-374.259 -446.506)"><g transform="translate(360 147.644)"><path class="am" d="M-13.6-39.863h33v605.34h-33Z" transform="translate(13.598 39.863)"/></g></g></g><g class="an" transform="matrix(0.966, 0.259, -0.259, 0.966, -988.182, 741.521)"><g class="c" transform="translate(-2764.519 -401.008)"><g transform="translate(2657.595 147.644)"><path class="ao" d="M-14.484-34.321H229.129v605.34H-14.484Z" transform="translate(14.484 34.321)"/></g></g></g><g class="ap" transform="matrix(0.966, 0.259, -0.259, 0.966, -1033.908, 762.625)"><g class="c" transform="translate(-2725.813 -433.228)"><g transform="translate(2657.595 147.644)"><path class="aq" d="M-9.241-38.685H234.372v605.34H-9.241Z" transform="translate(9.241 38.685)"/></g></g></g><g class="ar" transform="matrix(0.966, 0.259, -0.259, 0.966, -981.693, 689.384)"><g class="c" transform="translate(-2757.293 -348.968)"><path class="as" d="M8.505-59.728H184.366V119.93H8.505Z" transform="translate(2711.877 371.786)"/></g></g></g></g></svg>