<svg xmlns="http://www.w3.org/2000/svg" xmlns:xlink="http://www.w3.org/1999/xlink" width="16" height="16" viewBox="0 0 16 16"><defs><style>.a{fill:#fff;}.b{clip-path:url(#a);}.c{clip-path:url(#b);}.d{clip-path:url(#c);}</style><clipPath id="a"><path class="a" d="M733.62,2199.331c2.136,0,2.389.008,3.233.047a4.425,4.425,0,0,1,1.485.275,2.654,2.654,0,0,1,1.519,1.519,4.443,4.443,0,0,1,.275,1.485c.038.844.047,1.1.047,3.233s-.009,2.389-.047,3.232a4.458,4.458,0,0,1-.275,1.486,2.649,2.649,0,0,1-1.519,1.518,4.419,4.419,0,0,1-1.485.276c-.844.038-1.1.046-3.233.046s-2.389-.008-3.233-.046a4.419,4.419,0,0,1-1.485-.276,2.643,2.643,0,0,1-1.518-1.518,4.425,4.425,0,0,1-.276-1.486c-.038-.843-.046-1.1-.046-3.232s.008-2.389.046-3.233a4.411,4.411,0,0,1,.276-1.485,2.649,2.649,0,0,1,1.518-1.519,4.426,4.426,0,0,1,1.485-.275C731.231,2199.339,731.484,2199.331,733.62,2199.331Zm0-1.441c-2.173,0-2.445.009-3.3.048a5.869,5.869,0,0,0-1.942.372,4.095,4.095,0,0,0-2.34,2.339,5.873,5.873,0,0,0-.372,1.942c-.039.854-.048,1.126-.048,3.3s.009,2.445.048,3.3a5.864,5.864,0,0,0,.372,1.942,4.092,4.092,0,0,0,2.34,2.34,5.894,5.894,0,0,0,1.942.372c.853.038,1.125.048,3.3.048s2.445-.01,3.3-.048a5.889,5.889,0,0,0,1.942-.372,4.092,4.092,0,0,0,2.34-2.34,5.866,5.866,0,0,0,.372-1.942c.039-.853.048-1.126.048-3.3s-.009-2.445-.048-3.3a5.874,5.874,0,0,0-.372-1.942,4.095,4.095,0,0,0-2.34-2.339,5.864,5.864,0,0,0-1.942-.372C736.065,2197.9,735.793,2197.89,733.62,2197.89Z"/></clipPath><clipPath id="b"><path class="a" d="M733.62,2201.782a4.108,4.108,0,1,0,4.108,4.108A4.108,4.108,0,0,0,733.62,2201.782Zm0,6.774a2.667,2.667,0,1,1,2.667-2.666A2.667,2.667,0,0,1,733.62,2208.556Z"/></clipPath><clipPath id="c"><path class="a" d="M738.851,2201.619a.96.96,0,1,1-.96-.96A.96.96,0,0,1,738.851,2201.619Z"/></clipPath></defs><g transform="translate(-725.62 -2197.89)"><path class="a" d="M733.62,2199.331c2.136,0,2.389.008,3.233.047a4.425,4.425,0,0,1,1.485.275,2.654,2.654,0,0,1,1.519,1.519,4.443,4.443,0,0,1,.275,1.485c.038.844.047,1.1.047,3.233s-.009,2.389-.047,3.232a4.458,4.458,0,0,1-.275,1.486,2.649,2.649,0,0,1-1.519,1.518,4.419,4.419,0,0,1-1.485.276c-.844.038-1.1.046-3.233.046s-2.389-.008-3.233-.046a4.419,4.419,0,0,1-1.485-.276,2.643,2.643,0,0,1-1.518-1.518,4.425,4.425,0,0,1-.276-1.486c-.038-.843-.046-1.1-.046-3.232s.008-2.389.046-3.233a4.411,4.411,0,0,1,.276-1.485,2.649,2.649,0,0,1,1.518-1.519,4.426,4.426,0,0,1,1.485-.275C731.231,2199.339,731.484,2199.331,733.62,2199.331Zm0-1.441c-2.173,0-2.445.009-3.3.048a5.869,5.869,0,0,0-1.942.372,4.095,4.095,0,0,0-2.34,2.339,5.873,5.873,0,0,0-.372,1.942c-.039.854-.048,1.126-.048,3.3s.009,2.445.048,3.3a5.864,5.864,0,0,0,.372,1.942,4.092,4.092,0,0,0,2.34,2.34,5.894,5.894,0,0,0,1.942.372c.853.038,1.125.048,3.3.048s2.445-.01,3.3-.048a5.889,5.889,0,0,0,1.942-.372,4.092,4.092,0,0,0,2.34-2.34,5.866,5.866,0,0,0,.372-1.942c.039-.853.048-1.126.048-3.3s-.009-2.445-.048-3.3a5.874,5.874,0,0,0-.372-1.942,4.095,4.095,0,0,0-2.34-2.339,5.864,5.864,0,0,0-1.942-.372C736.065,2197.9,735.793,2197.89,733.62,2197.89Z"/><path class="a" d="M733.62,2201.782a4.108,4.108,0,1,0,4.108,4.108A4.108,4.108,0,0,0,733.62,2201.782Zm0,6.774a2.667,2.667,0,1,1,2.667-2.666A2.667,2.667,0,0,1,733.62,2208.556Z"/><path class="a" d="M738.851,2201.619a.96.96,0,1,1-.96-.96A.96.96,0,0,1,738.851,2201.619Z"/></g></svg>