<svg xmlns="http://www.w3.org/2000/svg" width="16" height="16" viewBox="0 0 16 16"><defs><style>.a{fill:#fff;fill-rule:evenodd;}</style></defs><g transform="translate(-632.592 -2198.89)"><path class="a" d="M646.592,2198.89h-12a2,2,0,0,0-2,2v12a2,2,0,0,0,2,2h12a2,2,0,0,0,2-2v-12A2,2,0,0,0,646.592,2198.89Zm-9.253,13.494H634.6v-8.268h2.74Zm-1.37-9.4h-.017a1.564,1.564,0,1,1,.017,0Zm11.249,9.4h-2.74v-4.424c0-1.11-.4-1.869-1.387-1.869a1.5,1.5,0,0,0-1.406,1,1.879,1.879,0,0,0-.09.671v4.617h-2.74s.037-7.492,0-8.268h2.74v1.171a2.719,2.719,0,0,1,2.469-1.365c1.8,0,3.154,1.181,3.154,3.721Z"/></g></svg>