<svg xmlns="http://www.w3.org/2000/svg" xmlns:xlink="http://www.w3.org/1999/xlink" width="47.994" height="47.996" viewBox="0 0 47.994 47.996"><defs><style>.a,.b{fill:none;}.b{clip-rule:evenodd;}.c{clip-path:url(#a);}.d{isolation:isolate;}.e{clip-path:url(#b);}.f{clip-path:url(#c);}.g{clip-path:url(#d);}.h{fill:#777b86;}.i{clip-path:url(#e);}.j{fill:#E30613;}.k{clip-path:url(#g);}.l{clip-path:url(#i);}.m{clip-path:url(#j);}.n{clip-path:url(#k);}</style><clipPath id="a"><path class="a" d="M.006,0H48V-48H.006Z"/></clipPath><clipPath id="b"><rect class="a" width="48" height="48" transform="translate(0 -48)"/></clipPath><clipPath id="c"><path class="b" d="M43.8-15.521l-5.864-1.353V-18.4a6.234,6.234,0,0,0,1.485-1.73h.838A3.875,3.875,0,0,0,44.129-24a3.833,3.833,0,0,0-.774-2.3v-3.121a9.3,9.3,0,0,0-9.29-9.29,9.3,9.3,0,0,0-9.29,9.29V-26.3A3.835,3.835,0,0,0,24-24a3.875,3.875,0,0,0,3.871,3.871h.838a6.222,6.222,0,0,0,1.485,1.73v1.525L24.33-15.521a5.388,5.388,0,0,0-1.1.394v-4.228A2.326,2.326,0,0,0,20.9-21.677H2.323A2.326,2.326,0,0,0,0-19.355V-5.419A2.326,2.326,0,0,0,2.323-3.1H8.516v1.548H6.968V0H48V-10.24A5.394,5.394,0,0,0,43.8-15.521Zm-13.007.1,1.887,1.415-1.908,1.145-.411-2.461ZM33.228-9.29H34.9l.645,7.742H32.583Zm1.826-1.548H33.074l-.445-1.333,1.435-.861,1.435.861Zm.4-3.169,1.887-1.415.546.126-.491,2.454Zm4.808-7.67h-.2a6.158,6.158,0,0,0,.2-1.548v-3.1A2.326,2.326,0,0,1,42.581-24,2.326,2.326,0,0,1,40.258-21.677ZM34.065-37.161a7.751,7.751,0,0,1,7.742,7.742v1.877a3.83,3.83,0,0,0-1.548-.328v-1.548H38.71v.432a4.539,4.539,0,0,1-1.869.974c.03-.029.063-.055.094-.084L35.84-29.193a4.531,4.531,0,0,1-2.1,1.179c.03-.029.063-.055.094-.084l-1.095-1.095a4.544,4.544,0,0,1-3.191,1.322h-.133v-1.548H27.871v1.548a3.83,3.83,0,0,0-1.548.328v-1.877A7.751,7.751,0,0,1,34.065-37.161ZM27.871-21.677A2.326,2.326,0,0,1,25.548-24a2.326,2.326,0,0,1,2.323-2.323v3.1a6.158,6.158,0,0,0,.2,1.548Zm1.548-1.548v-3.1h.133a6.051,6.051,0,0,0,2.19-.419v.419h.907a6.051,6.051,0,0,0,2.19-.419v.419h.907a6.093,6.093,0,0,0,2.964-.783v3.88a4.621,4.621,0,0,1-.271,1.548H34.065v1.548h3.453a4.629,4.629,0,0,1-3.453,1.548A4.65,4.65,0,0,1,29.419-23.226Zm4.645,6.194a6.15,6.15,0,0,0,2.323-.456v.843L34.065-14.9l-2.323-1.742v-.843A6.15,6.15,0,0,0,34.065-17.032Zm-9.387,3.02,4.171-.962.768,4.61,1.653-.992.462,1.386-.7,8.422H27.1v-8.516H25.548v8.516H21.677V-3.239a2.319,2.319,0,0,0,1.548-2.18v-7.909A3.872,3.872,0,0,1,24.677-14.012ZM14.71-1.548h5.419V-3.1H14.71ZM2.323-4.645a.775.775,0,0,1-.774-.774V-19.355a.775.775,0,0,1,.774-.774H20.9a.775.775,0,0,1,.774.774V-5.419a.775.775,0,0,1-.774.774H14.71V-6.194a3.1,3.1,0,0,0-3.1-3.1,3.1,3.1,0,0,0-3.1,3.1v1.548Zm7.742-1.548a1.55,1.55,0,0,1,1.548-1.548,1.55,1.55,0,0,1,1.548,1.548v4.645h-3.1ZM46.452-1.548H42.581v-8.516H41.032v8.516H37.1L36.4-9.97l.461-1.386,1.62.972.913-4.565,4.06.937a3.853,3.853,0,0,1,3,3.771Z"/></clipPath><clipPath id="d"><path class="a" d="M0,0H48V-48H0Z"/></clipPath><clipPath id="e"><path class="b" d="M19.355-32.175a2.319,2.319,0,0,0-1.588-2.2L14.71-35.4v-1.01a3.855,3.855,0,0,0,1.548-3.077v-1.548A3.875,3.875,0,0,0,12.387-44.9a3.875,3.875,0,0,0-3.871,3.871v1.548a3.853,3.853,0,0,0,1.548,3.077v1.01L7.007-34.378a2.32,2.32,0,0,0-1.588,2.2v4.3H19.355Zm-9.29-8.857a2.326,2.326,0,0,1,2.323-2.323,2.326,2.326,0,0,1,2.323,2.323v1.548a2.326,2.326,0,0,1-2.323,2.323,2.326,2.326,0,0,1-2.323-2.323Zm7.742,11.613H6.968v-2.755a.772.772,0,0,1,.53-.734l4.116-1.371v-1.411a3.871,3.871,0,0,0,.774.078,3.871,3.871,0,0,0,.774-.078v1.411l4.116,1.371a.773.773,0,0,1,.53.734Z"/></clipPath><clipPath id="g"><path class="b" d="M12.387-23.226A12.4,12.4,0,0,0,24.774-35.613,12.4,12.4,0,0,0,12.387-48,12.4,12.4,0,0,0,0-35.613,12.4,12.4,0,0,0,12.387-23.226Zm0-23.226A10.85,10.85,0,0,1,23.226-35.613,10.85,10.85,0,0,1,12.387-24.774,10.85,10.85,0,0,1,1.548-35.613,10.85,10.85,0,0,1,12.387-46.452Z"/></clipPath><clipPath id="i"><path class="a" d="M28.645-41.806h1.548v-1.548H28.645Z"/></clipPath><clipPath id="j"><path class="a" d="M33.29-41.806h1.548v-1.548H33.29Z"/></clipPath><clipPath id="k"><path class="a" d="M37.935-41.806h1.548v-1.548H37.935Z"/></clipPath></defs><g transform="translate(-0.006 47.996)"><g class="c"><g class="d"><g class="e"><g class="f"><g class="g"><path class="h" d="M-5-43.71H53V5H-5Z"/></g></g><g class="i"><g class="g"><path class="j" d="M.419-49.9H24.355v27.032H.419Z"/></g></g><g class="k"><g class="g"><path class="j" d="M-5-53H29.774v34.774H-5Z"/></g></g></g></g></g><g class="l"><path class="h" d="M23.645-48.355H35.194v11.548H23.645Z"/></g><g class="m"><path class="h" d="M28.29-48.355H39.839v11.548H28.29Z"/></g><g class="n"><path class="h" d="M32.935-48.355H44.484v11.548H32.935Z"/></g></g></svg>