<svg xmlns="http://www.w3.org/2000/svg" xmlns:xlink="http://www.w3.org/1999/xlink" width="86" height="28.789" viewBox="0 0 86 28.789"><defs><style>.a{fill:none;}.b{clip-path:url(#a);}.c{clip-path:url(#b);}.d{fill:#fff;}.e{clip-path:url(#c);}.f{clip-path:url(#e);}.g{clip-path:url(#g);}.h{clip-path:url(#i);}.i{clip-path:url(#k);}.j{fill:#e73a33;}.k{clip-path:url(#l);}</style><clipPath id="a"><path class="a" d="M3.148-20.583Q4.262-19.423,7.3-19.529h0L9.336-19.6v-3.207q-.211.015-.429.023t-.414.008a2.818,2.818,0,0,1-1.566-.248,1.953,1.953,0,0,1-.256-1.257h0v-8.673H9.336v-3.057H6.671v-4.577H2.425v4.577H.137v3.057H2.425v10.1A3.138,3.138,0,0,0,3.148-20.583Z" transform="translate(-0.137 40.593)"/></clipPath><clipPath id="b"><path class="a" d="M-40,3219.989H1282.271V-85H-40Z" transform="translate(40 85)"/></clipPath><clipPath id="c"><path class="a" d="M23.385-34.8a8.6,8.6,0,0,1,3.689.768,6.462,6.462,0,0,1,2.71,2.424,8.271,8.271,0,0,1,1.25,3.388,21.879,21.879,0,0,1,.136,3.252H19.937l.01.212a3.966,3.966,0,0,0,1.54,3.251,3.653,3.653,0,0,0,2.138.617,3.077,3.077,0,0,0,2.153-.753,3.576,3.576,0,0,0,.8-1.129h4.382l-.025.183a5.609,5.609,0,0,1-1.5,2.783,7.451,7.451,0,0,1-5.9,2.394,8.323,8.323,0,0,1-5.526-2.018q-2.394-2.018-2.394-6.565,0-4.261,2.161-6.535A7.388,7.388,0,0,1,23.385-34.8Zm0,3.538a2.915,2.915,0,0,0-2.311.934,4.66,4.66,0,0,0-1.031,2.53h6.67a3.736,3.736,0,0,0-1.031-2.582A3.2,3.2,0,0,0,23.385-31.261Z" transform="translate(-15.616 34.8)"/></clipPath><clipPath id="e"><path class="a" d="M46.654-17.93v-7.845a6.56,6.56,0,0,1,.5-2.921q.888-1.686,3.478-1.686.2,0,.512.015t.723.06h0v-4.4q-.286-.015-.369-.023t-.2-.008a4.714,4.714,0,0,0-3.132,1.009,9.072,9.072,0,0,0-1.732,2.243h0v-2.861h-4.1V-17.93Z" transform="translate(-42.333 34.734)"/></clipPath><clipPath id="g"><path class="a" d="M65.779-34.734a10.379,10.379,0,0,1,4.788,1.069Q72.66-32.6,72.66-29.63h0V-21.9q0,.721.03,1.7a2.385,2.385,0,0,0,.256,1.144,1.538,1.538,0,0,0,.632.5h0v.632H68.911l-.073-.2a4.518,4.518,0,0,1-.2-.737q-.075-.437-.12-.994a8.816,8.816,0,0,1-2.048,1.641,6.159,6.159,0,0,1-3.132.8,5.385,5.385,0,0,1-3.681-1.272A4.538,4.538,0,0,1,58.206-22.3a4.681,4.681,0,0,1,2.334-4.382A10.362,10.362,0,0,1,64.3-27.733h0l1.461-.181.194-.026a6.121,6.121,0,0,0,1.508-.351,1.29,1.29,0,0,0,.918-1.22,1.447,1.447,0,0,0-.7-1.393,4.374,4.374,0,0,0-2.055-.384,2.678,2.678,0,0,0-2.153.753,3.129,3.129,0,0,0-.6,1.506H58.733l.021-.266a6.158,6.158,0,0,1,1.184-3.272Q61.639-34.734,65.779-34.734Zm2.59,8.823-.2.122a4.523,4.523,0,0,1-.617.292,6.862,6.862,0,0,1-1.137.294h0l-.964.181-.2.038a5.756,5.756,0,0,0-1.738.55,1.968,1.968,0,0,0-.994,1.822,1.918,1.918,0,0,0,.61,1.589,2.3,2.3,0,0,0,1.483.489,4.37,4.37,0,0,0,2.552-.813,3.467,3.467,0,0,0,1.212-2.966h0Z" transform="translate(-58.206 34.734)"/></clipPath><clipPath id="i"><path class="a" d="M93.54-34.69a6.43,6.43,0,0,1,4.871,2.123q1.995,2.123,2,6.234,0,4.336-1.95,6.61a6.312,6.312,0,0,1-5.021,2.274,5.241,5.241,0,0,1-3.252-.979A6.31,6.31,0,0,1,88.8-20.01h0v8.552H84.551V-34.329h4.111V-31.9l.155-.232a6.608,6.608,0,0,1,1.321-1.454A5.422,5.422,0,0,1,93.54-34.69Zm-1.235,3.749A3.2,3.2,0,0,0,89.1-28.728a8.4,8.4,0,0,0-.452,2.981q0,2.861,1.521,4.02a3.463,3.463,0,0,0,2.138.678,3.1,3.1,0,0,0,2.733-1.385,6.46,6.46,0,0,0,.941-3.689,6.459,6.459,0,0,0-.866-3.358A3.014,3.014,0,0,0,92.305-30.941Z" transform="translate(-84.551 34.69)"/></clipPath><clipPath id="k"><path class="a" d="M118.694-38.8h4.351v-3.96h-4.351Z" transform="translate(-118.694 42.758)"/></clipPath><clipPath id="l"><path class="a" d="M112.164-17.753h4.351V-34.166h-4.351Z" transform="translate(-112.164 34.166)"/></clipPath></defs><g transform="translate(-0.137 42.758)"><g class="b" transform="translate(0.137 -41.267)"><g class="c" transform="translate(-27.641 -30.582)"><path class="d" d="M-4.863-45.593H11.223v27.96H-4.863Z" transform="translate(29.061 72.732)"/></g></g><g class="e" transform="translate(10.797 -37.277)"><g class="c" transform="translate(-38.302 -34.572)"><path class="d" d="M10.616-39.8H33.061v24.278H10.616Z" transform="translate(24.242 70.928)"/></g></g><g class="f" transform="translate(29.197 -37.232)"><g class="c" transform="translate(-56.701 -34.617)"><path class="d" d="M37.333-39.734H53.751v23.69H37.333Z" transform="translate(15.925 70.908)"/></g></g><g class="g" transform="translate(40.128 -37.232)"><g class="c" transform="translate(-67.633 -34.617)"><path class="d" d="M53.206-39.734h22.26v24.2H53.206Z" transform="translate(10.983 70.908)"/></g></g><g class="h" transform="translate(58.271 -37.202)"><g class="c" transform="translate(-85.776 -34.647)"><path class="d" d="M79.551-39.69h22.742v30.12H79.551Z" transform="translate(2.782 70.894)"/></g></g><g class="i" transform="translate(81.785 -42.758)"><path class="j" d="M113.694-47.758h11.238v10.847H113.694Z" transform="translate(-117.138 44.314)"/></g><g class="k" transform="translate(77.288 -36.84)"><path class="d" d="M107.164-39.166H118.4v23.3H107.164Z" transform="translate(-110.608 35.722)"/></g></g></svg>