<?xml version="1.0" encoding="utf-8"?>
<!-- Generator: Adobe Illustrator 25.3.1, SVG Export Plug-In . SVG Version: 6.00 Build 0)  -->
<svg version="1.1" id="Layer_1" xmlns="http://www.w3.org/2000/svg" xmlns:xlink="http://www.w3.org/1999/xlink" x="0px" y="0px"
	 viewBox="0 0 85 30" style="enable-background:new 0 0 85 30;" xml:space="preserve">
<style type="text/css">
	.st0{fill:#E30613;}
	.st1{fill:#FFFFFF;}
</style>
<rect x="80.75" y="10.46" class="st0" width="4.25" height="4.76"/>
<rect x="78.7" y="6.55" class="st0" width="2.89" height="3.23"/>
<rect x="77.83" y="10.51" class="st0" width="2.13" height="2.38"/>
<g>
	<polygon class="st1" points="0,10.98 8.87,10.98 8.87,24.66 13.63,24.68 13.66,10.98 13.66,7 0,6.98 	"/>
	<path class="st1" d="M40.45,16.88c0.77-0.89,1.15-2.05,1.15-3.49c0-2.24-0.59-3.88-1.78-4.89c-1.19-1.02-2.87-1.53-5.05-1.53
		L27.31,7v3.92h-9.5v2.8h9.5v3.78h-9.5v2.8h9.5v4.35h4.76v-4.84h0.82l3.79,4.84l5.76,0.03l-5.05-6
		C38.66,18.37,39.68,17.77,40.45,16.88z M36.55,14.56c-0.16,0.3-0.41,0.57-0.75,0.81c-0.34,0.24-0.83,0.37-1.46,0.37h-2.21V11h2.47
		c0.28,0,0.56,0.04,0.83,0.13c0.27,0.09,0.51,0.22,0.72,0.41c0.21,0.18,0.38,0.42,0.5,0.72c0.12,0.3,0.18,0.66,0.18,1.1
		C36.8,13.86,36.7,14.26,36.55,14.56z"/>
	<path class="st1" d="M72.94,9.24c-0.42-0.53-0.91-0.94-1.47-1.25c-0.56-0.31-1.14-0.53-1.74-0.68c-0.6-0.15-1.19-0.24-1.79-0.28
		C67.35,7,66.8,6.98,66.31,6.98h-6.58v17.7h4.76v-4.87h2.53c2.33,0,4.08-0.52,5.25-1.55c1.17-1.03,1.79-2.42,1.88-4.16
		c0.07-1.14-0.01-2.1-0.24-2.89C73.69,10.42,73.36,9.77,72.94,9.24z M69.34,14.25c-0.09,0.29-0.22,0.54-0.41,0.76
		c-0.18,0.22-0.41,0.39-0.68,0.53c-0.27,0.13-0.59,0.2-0.96,0.2h-2.74v-4.76h2.26c0.44,0,0.82,0.07,1.16,0.21
		c0.33,0.14,0.61,0.32,0.83,0.54c0.22,0.22,0.39,0.47,0.5,0.76c0.11,0.29,0.17,0.58,0.17,0.88C69.47,13.67,69.42,13.96,69.34,14.25z
		"/>
	<polygon class="st1" points="77.14,13.58 77.14,12.37 75.22,12.37 75.22,24.66 79.97,24.66 79.97,13.58 	"/>
	<path class="st1" d="M56.16,8.59c-0.69-0.6-1.49-1.06-2.4-1.4c-0.91-0.33-1.89-0.5-2.93-0.5c-1.04,0-2.01,0.17-2.93,0.51
		c-0.91,0.34-1.71,0.82-2.4,1.44c-0.69,0.62-1.23,1.35-1.62,2.19c-0.4,0.84-0.59,1.78-0.59,2.8l0.03,11.06h4.75l0.04-3.82h4.4v-3.91
		h-4.36l0.03-3.46c0-0.37,0.07-0.72,0.22-1.04c0.15-0.33,0.35-0.61,0.61-0.86c0.26-0.25,0.55-0.44,0.88-0.58
		c0.33-0.14,0.69-0.21,1.08-0.21c0.39,0,0.75,0.07,1.08,0.21c0.33,0.14,0.63,0.33,0.88,0.58c0.26,0.25,0.45,0.53,0.59,0.86
		c0.14,0.33,0.21,0.67,0.21,1.04L53.6,24.6h4.8V13.55c0-1.02-0.2-1.95-0.61-2.8C57.39,9.91,56.84,9.18,56.16,8.59z"/>
</g>
</svg>
