<svg xmlns="http://www.w3.org/2000/svg" xmlns:xlink="http://www.w3.org/1999/xlink" width="16" height="13.538" viewBox="0 0 16 13.538"><defs><style>.a{fill:#fff;}.b{clip-path:url(#a);}</style><clipPath id="a"><path class="a" d="M683.424,2213.428c6.038,0,9.34-5.209,9.34-9.726,0-.148,0-.295-.01-.442a6.832,6.832,0,0,0,1.638-1.77,6.334,6.334,0,0,1-1.885.538,3.41,3.41,0,0,0,1.443-1.89,6.44,6.44,0,0,1-2.085.829,3.225,3.225,0,0,0-2.393-1.077,3.371,3.371,0,0,0-3.286,3.421,3.593,3.593,0,0,0,.085.774,9.2,9.2,0,0,1-6.765-3.572,3.523,3.523,0,0,0,1.016,4.564,3.159,3.159,0,0,1-1.49-.428v.043a3.4,3.4,0,0,0,2.634,3.351,3.169,3.169,0,0,1-1.483.059,3.314,3.314,0,0,0,3.067,2.374,6.418,6.418,0,0,1-4.076,1.466,6.578,6.578,0,0,1-.782-.049,9.033,9.033,0,0,0,5.032,1.533"/></clipPath></defs><g transform="translate(-678.392 -2199.89)"><path class="a" d="M683.424,2213.428c6.038,0,9.34-5.209,9.34-9.726,0-.148,0-.295-.01-.442a6.832,6.832,0,0,0,1.638-1.77,6.334,6.334,0,0,1-1.885.538,3.41,3.41,0,0,0,1.443-1.89,6.44,6.44,0,0,1-2.085.829,3.225,3.225,0,0,0-2.393-1.077,3.371,3.371,0,0,0-3.286,3.421,3.593,3.593,0,0,0,.085.774,9.2,9.2,0,0,1-6.765-3.572,3.523,3.523,0,0,0,1.016,4.564,3.159,3.159,0,0,1-1.49-.428v.043a3.4,3.4,0,0,0,2.634,3.351,3.169,3.169,0,0,1-1.483.059,3.314,3.314,0,0,0,3.067,2.374,6.418,6.418,0,0,1-4.076,1.466,6.578,6.578,0,0,1-.782-.049,9.033,9.033,0,0,0,5.032,1.533"/></g></svg>