<?xml version="1.0" encoding="iso-8859-1"?>
<!-- Generator: Adobe Illustrator 19.0.0, SVG Export Plug-In . SVG Version: 6.00 Build 0)  -->
<svg version="1.1" xmlns="http://www.w3.org/2000/svg" xmlns:xlink="http://www.w3.org/1999/xlink" x="0px" y="0px"
	 viewBox="0 0 512.001 512.001" style="enable-background:new 0 0 512.001 512.001;" xml:space="preserve" fill="#FFFF">
<g>
	<g>
		<path d="M145.167,61.201c-0.263-0.55-0.556-1.084-0.88-1.6c0,0,0-0.64-0.56-0.96c-0.407-0.459-0.895-0.839-1.44-1.12
			c-0.313-0.285-0.663-0.527-1.04-0.72h-1.36c-0.557-0.076-1.123-0.076-1.68,0h-40c-4.418,0-8,3.582-8,8s3.582,8,8,8h20.4
			c-12.533,13.337-23.412,28.137-32.4,44.08c-1.883,3.382-1.074,7.627,1.92,10.08c3.834,2.196,8.722,0.868,10.918-2.966
			c0.014-0.025,0.028-0.049,0.042-0.074c8.353-14.782,18.452-28.507,30.08-40.88v20.96c0,4.418,3.582,8,8,8s8-3.582,8-8v-40
			c0.038-0.399,0.038-0.801,0-1.2C145.212,62.268,145.212,61.733,145.167,61.201z"/>
	</g>
</g>
<g>
	<g>
		<path d="M460.607,391.761h-18.16c90.486-87.505,92.903-231.796,5.398-322.282C404.932,25.104,345.856,0.034,284.127,0.001
			c-29.865-0.072-59.447,5.774-87.04,17.2c-4.087,1.679-6.039,6.353-4.36,10.44c1.679,4.087,6.353,6.039,10.44,4.36
			c108.211-44.711,232.179,6.767,276.89,114.978c33.63,81.393,13.437,175.102-50.73,235.422v-22.4c0-4.418-3.582-8-8-8s-8,3.582-8,8
			v40c0,0,0,0.64,0,1.04c-0.03,0.533-0.03,1.067,0,1.6c0.236,0.496,0.503,0.977,0.8,1.44c0.112,0.317,0.274,0.614,0.48,0.88
			c0.576,0.637,1.252,1.178,2,1.6l0.72,0.48c1.022,0.492,2.146,0.739,3.28,0.72h40c4.418,0,8-3.582,8-8
			S465.025,391.761,460.607,391.761z"/>
	</g>
</g>
<g>
	<g>
		<rect x="160.127" y="35.761" width="16" height="16"/>
	</g>
</g>
<g>
	<g>
		<rect x="389.167" y="413.441" width="16" height="16"/>
	</g>
</g>
<g>
	<g>
		<path d="M208.127,106.161c-4.151,3.71-8.078,7.664-11.76,11.84l11.76,10.72c3.373-3.693,6.952-7.192,10.72-10.48L208.127,106.161z
			"/>
	</g>
</g>
<g>
	<g>
		<path d="M314.287,335.041c-4.8,0.56-9.52,0.64-15.04,0.8l0.88,16.16c5.348-0.007,10.69-0.328,16-0.96L314.287,335.041z"/>
	</g>
</g>
<g>
	<g>
		<path d="M161.167,193.761c-0.673,5.655-1.021,11.345-1.04,17.04h16c0.062-5.002,0.409-9.997,1.04-14.96L161.167,193.761z"/>
	</g>
</g>
<g>
	<g>
		<path d="M217.327,304.001l-10.72,12.16c4.193,3.805,8.629,7.332,13.28,10.56l9.2-13.12
			C224.972,310.647,221.045,307.441,217.327,304.001z"/>
	</g>
</g>
<g>
	<g>
		<path d="M169.647,161.041c-2.004,5.242-3.74,10.582-5.2,16l15.52,4c1.263-4.808,2.812-9.537,4.64-14.16L169.647,161.041z"/>
	</g>
</g>
<g>
	<g>
		<path d="M184.127,255.041l-14.96,5.6c1.952,5.306,4.223,10.488,6.8,15.52l13.92-7.36
			C187.678,264.34,185.754,259.744,184.127,255.041z"/>
	</g>
</g>
<g>
	<g>
		<path d="M351.647,81.761l-5.92,14.88c4.672,1.825,9.216,3.963,13.6,6.4l7.68-14.08C362.027,86.272,356.899,83.868,351.647,81.761z
			"/>
	</g>
</g>
<g>
	<g>
		<path d="M176.927,225.921l-16,1.76c0.628,5.625,1.59,11.209,2.88,16.72l15.68-3.68
			C178.31,235.849,177.455,230.905,176.927,225.921z"/>
	</g>
</g>
<g>
	<g>
		<path d="M344.127,328.001c-4.847,1.786-9.788,3.309-14.8,4.56l3.84,15.52c5.414-1.379,10.755-3.035,16-4.96L344.127,328.001z"/>
	</g>
</g>
<g>
	<g>
		<path d="M300.127,72.001c-5.024-0.015-10.046,0.252-15.04,0.8l1.68,16c4.436-0.508,8.895-0.775,13.36-0.8h1.68v-16H300.127z"/>
	</g>
</g>
<g>
	<g>
		<path d="M197.567,281.681l-13.44,9.04c3.245,4.639,6.771,9.074,10.56,13.28l12.08-10.4
			C203.456,289.822,200.383,285.841,197.567,281.681z"/>
	</g>
</g>
<g>
	<g>
		<path d="M436.687,180.481l-15.68,3.52c1.111,4.908,1.939,9.877,2.48,14.88l16-1.68
			C438.879,191.578,437.944,185.995,436.687,180.481z"/>
	</g>
</g>
<g>
	<g>
		<path d="M425.407,148.961l-14.56,7.2c2.296,4.452,4.3,9.048,6,13.76l15.28-5.36C430.217,159.224,427.973,154.014,425.407,148.961z
			"/>
	</g>
</g>
<g>
	<g>
		<path d="M268.367,75.601c-5.425,1.311-10.767,2.94-16,4.88l5.52,15.04c4.644-1.758,9.402-3.201,14.24-4.32L268.367,75.601z"/>
	</g>
</g>
<g>
	<g>
		<path d="M318.847,73.281l-2.08,16c4.965,0.636,9.882,1.598,14.72,2.88l4-15.68C330.007,75.091,324.451,74.023,318.847,73.281z"/>
	</g>
</g>
<g>
	<g>
		<path d="M392.767,294.401c-3.323,3.763-6.877,7.317-10.64,10.64l10.56,12c4.236-3.756,8.244-7.764,12-12L392.767,294.401z"/>
	</g>
</g>
<g>
	<g>
		<path d="M424.127,212.001c-0.014,5.026-0.308,10.047-0.88,15.04l16,1.92c0.651-5.629,0.945-11.294,0.88-16.96H424.127z"/>
	</g>
</g>
<g>
	<g>
		<path d="M420.527,241.761c-1.18,4.831-2.649,9.586-4.4,14.24l14.96,5.68c1.985-5.252,3.642-10.622,4.96-16.08L420.527,241.761z"/>
	</g>
</g>
<g>
	<g>
		<path d="M409.967,269.761c-2.399,4.454-5.07,8.756-8,12.88l13.12,9.12c3.316-4.631,6.335-9.468,9.04-14.48L409.967,269.761z"/>
	</g>
</g>
<g>
	<g>
		<path d="M406.367,120.801l-12.16,10.48c3.286,3.779,6.332,7.76,9.12,11.92l13.28-8.88
			C413.491,129.597,410.07,125.08,406.367,120.801z"/>
	</g>
</g>
<g>
	<g>
		<path d="M370.287,314.081c-4.137,2.886-8.438,5.53-12.88,7.92l7.44,14c5.006-2.598,9.842-5.511,14.48-8.72L370.287,314.081z"/>
	</g>
</g>
<g>
	<g>
		<path d="M381.727,98.001l-9.6,13.04c4.18,2.911,8.187,6.063,12,9.44l10.8-11.84C390.726,104.854,386.319,101.301,381.727,98.001z"
			/>
	</g>
</g>
<g>
	<g>
		<path d="M269.807,332.161l-3.84,15.44c5.46,1.493,11.021,2.59,16.64,3.28l2-16C279.626,334.253,274.685,333.344,269.807,332.161z"
			/>
	</g>
</g>
<g>
	<g>
		<path d="M185.727,131.281c-3.25,4.615-6.215,9.424-8.88,14.4l14.08,7.6c2.334-4.449,4.98-8.726,7.92-12.8L185.727,131.281z"/>
	</g>
</g>
<g>
	<g>
		<path d="M236.527,87.041c-5.033,2.685-9.895,5.677-14.56,8.96l8.88,13.28c4.153-2.929,8.481-5.6,12.96-8L236.527,87.041z"/>
	</g>
</g>
<g>
	<g>
		<path d="M241.807,321.681l-7.52,14.32c5.017,2.504,10.172,4.721,15.44,6.64l5.76-14.64
			C250.81,326.157,246.242,324.047,241.807,321.681z"/>
	</g>
</g>
<g>
	<g>
		<rect x="16.127" y="384.001" width="16" height="16"/>
	</g>
</g>
<g>
	<g>
		<rect x="16.127" y="416.001" width="16" height="16"/>
	</g>
</g>
<g>
	<g>
		<rect x="16.127" y="448.001" width="16" height="16"/>
	</g>
</g>
<g>
	<g>
		<rect x="16.127" y="480.001" width="16" height="16"/>
	</g>
</g>
<g>
	<g>
		<rect x="48.127" y="416.001" width="16" height="16"/>
	</g>
</g>
<g>
	<g>
		<rect x="48.127" y="448.001" width="16" height="16"/>
	</g>
</g>
<g>
	<g>
		<rect x="48.127" y="480.001" width="16" height="16"/>
	</g>
</g>
<g>
	<g>
		<rect x="80.127" y="448.001" width="16" height="16"/>
	</g>
</g>
<g>
	<g>
		<rect x="80.127" y="480.001" width="16" height="16"/>
	</g>
</g>
<g>
	<g>
		<rect x="112.127" y="480.001" width="16" height="16"/>
	</g>
</g>
<g>
	<g>
		<path d="M396.607,458.481l-75.04-75.04c-2.704-2.676-6.919-3.078-10.08-0.96c-3.12,2.08-6.08,4.24-8.96,6.32
			c-27.12,19.44-45.04,32-128-50.88s-70.4-101.28-51.2-128.4c2.08-2.88,4.24-5.84,6.32-8.96c2.118-3.161,1.716-7.376-0.96-10.08
			l-75.04-75.04c-1.682-1.688-4.028-2.538-6.4-2.32c-2.374,0.243-4.516,1.534-5.84,3.52c-3.6,5.28-7.28,10.4-10.88,15.36
			c-38.4,53.28-68.56,95.36,92.8,256.72c94.4,94.4,147.92,123.28,186.8,123.28c27.6,0,48-14.48,69.92-30.4
			c4.96-3.6,10.08-7.28,15.36-10.88c1.986-1.324,3.277-3.466,3.52-5.84C399.145,462.508,398.295,460.162,396.607,458.481z
			 M43.567,141.361l5.6-8l63.44,63.52l-2.24,3.2c-2.56,3.52-4.96,7.04-7.2,10.48l-64-64
			C40.847,145.121,42.127,143.281,43.567,141.361z M134.607,377.681c-131.52-131.2-129.92-175.84-104.24-217.12l65.2,65.2
			c-9.44,26,1.12,57.12,67.36,123.36s97.36,76.8,123.36,67.36l65.2,65.2C310.207,507.361,266.127,508.881,134.607,377.681z
			 M370.847,468.481l-5.68,4.08l-64-64c3.6-1.92,7.12-4.32,10.96-6.88l3.2-2.24l63.52,63.44L370.847,468.481z"/>
	</g>
</g>
<g>
	<g>
		<path d="M288.127,232.001h-28.72l34.4-34.32c2.067-2.108,2.805-5.183,1.92-8c-6.93-17.452-26.695-25.982-44.148-19.052
			c-8.704,3.456-15.596,10.349-19.052,19.052v-0.16c-1.322,4.149,0.918,8.594,5.04,10c4.101,1.644,8.758-0.349,10.402-4.45
			c0.057-0.142,0.11-0.285,0.158-0.43c2.559-6.563,8.958-10.818,16-10.64c5.505-0.244,10.786,2.203,14.16,6.56l-43.84,43.76
			c-2.27,2.3-2.933,5.741-1.68,8.72c1.227,2.987,4.13,4.944,7.36,4.96h48c4.418,0,8-3.582,8-8S292.545,232.001,288.127,232.001z"/>
	</g>
</g>
<g>
	<g>
		<path d="M352.127,168.001c-4.418,0-8,3.582-8,8v32h-22.24l6.24-30.4c0.884-4.418-1.982-8.716-6.4-9.6s-8.716,1.982-9.6,6.4v0
			l-8,40c-0.464,2.353,0.153,4.79,1.68,6.64c1.543,1.902,3.871,2.993,6.32,2.96h32v16c0,4.418,3.582,8,8,8s8-3.582,8-8v-64
			C360.127,171.582,356.545,168.001,352.127,168.001z"/>
	</g>
</g>
</svg>
